<svg xmlns="http://www.w3.org/2000/svg" width="22" height="35" viewBox="0 0 22 35">
    <g fill="none" fill-rule="nonzero">
        <path fill="#E57E25" d="M15.282 5.963c.26.479.7.829 1.22.97.518.14 1.07.06 1.53-.224.646-.4 1.255-.863 1.818-1.38A12.942 12.942 0 0 0 22 2.76 61.376 61.376 0 0 0 18.906 0a8.66 8.66 0 0 1-2.915 3.062c-.962.614-1.276 1.897-.71 2.9z"/>
        <path fill="#FFF" d="M14.337 10c.24 0 .461-.092.578-.24a.355.355 0 0 0-.013-.475c-1.063-1.232-1.64-2.02-1.645-2.029-.167-.231-.568-.323-.895-.204-.327.118-.456.4-.289.632.025.033.598.826 1.696 2.091.121.14.336.225.568.225z"/>
        <path fill="#F9EAB0" d="M.267 30.832c-.069.55.11 1.102.489 1.517.38.414.925.651 1.497.651h15.494a2.03 2.03 0 0 0 1.497-.651c.38-.415.558-.967.49-1.517l-1.22-9.87-.007-.007-.094-.78a1.907 1.907 0 0 1 .68-1.691c.532-.384.863-.973.907-1.613 0-1.871-3.427-3.432-7.987-3.794A25.358 25.358 0 0 0 10 13c-5.52 0-10 1.735-10 3.871.044.64.375 1.23.907 1.613.501.42.756 1.053.68 1.69L.267 30.832z"/>
        <path fill="#E4C05C" d="M3.011 35H18.99c.786 0 1.536-.326 2.058-.897.522-.57.767-1.33.673-2.088l-1.258-10.2a.577.577 0 0 0-.016-.083l-.087-.727c-.052-.442.125-.88.472-1.172A2.888 2.888 0 0 0 22 17.667c0-2.321-3.564-4.164-8.869-4.584C12.45 13.028 11.732 13 11 13c-6.27 0-11 2.006-11 4.667a2.89 2.89 0 0 0 1.169 2.168c.346.29.522.725.472 1.165L.28 32.014c-.094.758.15 1.518.673 2.089.522.57 1.271.897 2.058.897zm16.095-12.949l1.248 10.122c.048.379-.075.759-.336 1.045a1.395 1.395 0 0 1-1.03.449H3.012c-.393 0-.768-.164-1.03-.45a1.307 1.307 0 0 1-.335-1.044l1.36-11.014a2.634 2.634 0 0 0-.93-2.326 1.704 1.704 0 0 1-.701-1.166c0-1.574 4.116-3.334 9.625-3.334.695 0 1.375.026 2.02.078 4.76.378 7.605 1.952 7.605 3.256a1.7 1.7 0 0 1-.7 1.164 2.639 2.639 0 0 0-.931 2.33l.096.8c.002.03.008.06.016.09z"/>
        <g fill="#CB8252" transform="matrix(-1 0 0 1 17 16)">
            <ellipse cx="3.316" cy="1.266" rx="1" ry="1"/>
            <ellipse cx=".663" cy="3.797" rx="1" ry="1"/>
            <ellipse cx="3.316" cy="6.328" rx="1" ry="1"/>
            <ellipse cx="11.276" cy="2.531" rx="1" ry="1"/>
            <ellipse cx="7.296" cy=".633" rx="1" ry="1"/>
            <ellipse cx="9.286" cy="6.328" rx="1" ry="1"/>
            <ellipse cx="5.97" cy="3.797" rx="1" ry="1"/>
        </g>
    </g>
</svg>
