<svg xmlns="http://www.w3.org/2000/svg" width="40" height="39" viewBox="0 0 40 39">
    <g fill="none" fill-rule="nonzero" transform="matrix(-1 0 0 1 40 0)">
        <path fill="#F9EAB0" d="M12 10.984a7.57 7.57 0 0 1 .387-1.804 7.409 7.409 0 0 1 1.605-2.695A7.732 7.732 0 0 1 19.631 4h.028a7.692 7.692 0 0 1 6.948 4.338l.682 1.396.31.646.31.639 1.246 2.568.626 1.278v.007l1.24 2.562.626 1.284 3.73 7.692.627 1.285 3.745 7.72a2.491 2.491 0 0 1-.795 3.119c-.992.707-2.35.6-3.217-.255l-9.102-8.949L12 10.984z"/>
        <path fill="#E4C05C" d="M30 15.963v.005l-1.83.931a.913.913 0 0 1-.429.101c-.24.002-.464-.081-.6-.222a.413.413 0 0 1-.131-.394c.032-.138.14-.261.302-.342L29.34 15l.659.963zM31 18.843l-2.017 1.074a.813.813 0 0 1-.36.083c-.27 0-.509-.128-.592-.318-.084-.19.007-.399.226-.516L30.447 18l.553.843zM36 28.173l-2.108 1.712a.53.53 0 0 1-.327.115.539.539 0 0 1-.458-.263.709.709 0 0 1-.1-.48.657.657 0 0 1 .23-.417l2.26-1.84.503 1.173z"/>
        <path fill="#24AE5F" d="M14 7.45a5.91 5.91 0 0 0-1.368 2.171C10.454 8.677 8 10 8 10c1.134-2.708 3.156-3.07 4.452-2.99.416.022.826.1 1.218.231.118.059.228.129.33.21zM20.957 4.42a7.436 7.436 0 0 0-2.846.58 1.71 1.71 0 0 1-.11-.399 4.467 4.467 0 0 1 .175-1.278C18.536 2.02 19.638.15 23 0c0 0-2.31 1.945-2.043 4.42z"/>
        <path fill="#4FBA6F" d="M16.815 5.418c.022.174.06.345.117.508A7.735 7.735 0 0 0 14.434 8a2.126 2.126 0 0 0-.376-.294 4.427 4.427 0 0 0-1.389-.326C11.896 5.227 12.005 1 12.005 1S15.502 2.24 17 3.789a6.848 6.848 0 0 0-.185 1.629z"/>
        <path fill="#E4C05C" d="M29 12.251l-3.81 2.612a.755.755 0 0 1-.44.137c-.236 0-.46-.1-.604-.274a.641.641 0 0 1-.138-.508.677.677 0 0 1 .295-.449L28.343 11l.329.63.328.621z"/>
        <path fill="#F29C1F" d="M28 25.5c0 7.3-6.017 13.277-13.584 13.494C6.85 39.21.475 33.589.026 26.302c-.45-7.287 5.188-13.598 12.728-14.248A15.11 15.11 0 0 1 14 12c7.729.008 13.992 6.047 14 13.5z"/>
        <path fill="#805333" d="M8.5 18c-.276 0-.5-.298-.5-.667v-.666c0-.369.224-.667.5-.667s.5.298.5.667v.666c0 .369-.224.667-.5.667zM8.5 24c-.276 0-.5-.298-.5-.667v-.666c0-.369.224-.667.5-.667s.5.298.5.667v.666c0 .369-.224.667-.5.667zM5.3 19a.632.632 0 0 1-.349-.107l-.605-.4c-.332-.224-.444-.711-.252-1.092.192-.382.617-.514.95-.296l.606.4c.274.182.408.551.326.901-.082.35-.359.594-.675.594zM11.304 22a.624.624 0 0 1-.349-.107l-.603-.4a.826.826 0 0 1-.352-.692c0-.287.133-.552.35-.695a.62.62 0 0 1 .699.004l.603.4c.273.18.406.549.324.898-.081.35-.357.592-.672.592zM4.696 22c-.315 0-.59-.243-.672-.592-.082-.35.051-.718.324-.899l.603-.4a.62.62 0 0 1 .7-.003c.216.143.35.408.349.695a.826.826 0 0 1-.352.692l-.603.4a.624.624 0 0 1-.349.107zM10.696 19c-.315 0-.59-.243-.672-.592-.082-.35.051-.718.324-.899l.603-.4a.62.62 0 0 1 .7-.003c.216.143.35.408.349.695a.826.826 0 0 1-.352.692l-.603.4a.63.63 0 0 1-.349.107z"/>
        <g fill="#E57E25" transform="translate(6 29)">
            <ellipse cx=".691" cy="2.777" rx="1" ry="1"/>
            <ellipse cx="2.763" cy="4.86" rx="1" ry="1"/>
            <ellipse cx="4.836" cy="2.083" rx="1" ry="1"/>
            <ellipse cx="6.909" cy="6.249" rx="1" ry="1"/>
            <ellipse cx="11.054" cy="6.249" rx="1" ry="1"/>
            <ellipse cx="14.508" cy="4.166" rx="1" ry="1"/>
            <ellipse cx="17.271" cy=".694" rx="1" ry="1"/>
            <ellipse cx="9.672" cy="2.777" rx="1" ry="1"/>
            <ellipse cx="13.817" cy=".694" rx="1" ry="1"/>
        </g>
        <circle cx="9" cy="19" r="2" fill="#A56A43"/>
    </g>
</svg>
