<svg xmlns="http://www.w3.org/2000/svg" width="15" height="21" viewBox="0 0 15 21">
    <g fill="none" fill-rule="nonzero">
        <path fill="#F0C419" d="M-15.138-14.024v-2.332a.65.65 0 0 1 .655-.644.65.65 0 0 1 .655.644v2.332l7.862 4.753V4.415L6.364.628a2.705 2.705 0 0 1 1.645.02C13.808 2.566 15 6.83 15 6.83v12.88A1.303 1.303 0 0 1 13.69 21h-34.07c-1.447 0-2.62-1.153-2.62-2.576V-9.271l7.862-4.753z"/>
        <path fill="#F3D55B" d="M-14 7h29s-1.2-4.047-7.032-5.87a2.876 2.876 0 0 0-1.655-.017L-6.09 4.707-14 7z"/>
        <g fill="#F29C1F" transform="matrix(-1 0 0 1 12 3)">
            <ellipse cx="1.314" cy="8.308" rx="1.314" ry="1.278"/>
            <ellipse cx="6.242" cy="13.102" rx="1.643" ry="1.598"/>
            <ellipse cx="13.141" cy="7.669" rx="1.314" ry="1.278"/>
            <ellipse cx="5.914" cy=".639" rx="1" ry="1"/>
            <ellipse cx="7.885" cy="7.669" rx="1" ry="1"/>
            <ellipse cx=".657" cy="14.699" rx="1" ry="1"/>
            <ellipse cx="9.856" cy="1.917" rx="1" ry="1"/>
            <ellipse cx="2.628" cy="1.917" rx="1" ry="1"/>
        </g>
    </g>
</svg>
