<svg xmlns="http://www.w3.org/2000/svg" width="35" height="40" viewBox="0 0 35 40">
    <g fill="none" fill-rule="nonzero">
        <path fill="#88C057" d="M7.472 19.507c-1.11.265-2.323.259-3.616-.29C1.632 18.273.05 16.127 0 13.699a6.102 6.102 0 0 1 4.062-5.886c.169-2.47 2.208-4.42 4.704-4.42h.022a2.943 2.943 0 0 1 .1-1.18c.339-1.16 1.35-2.048 2.543-2.19a3.017 3.017 0 0 1 2.503.86 3.335 3.335 0 0 1 2.25-.882c1.863 0 3.373 1.52 3.373 3.393l-.002.017a4.397 4.397 0 0 1 3.924 5.422c2.695.113 4.846 2.339 4.846 5.077a5.08 5.08 0 0 1-.682 2.544A3.733 3.733 0 0 1 29 19.338a3.729 3.729 0 0 1-2.475 3.516c.186 6.634-2.167 10.549-6.72 15.821l-.247.284-.053.06c-1.893 2.137-6.163.5-5.245-2.209C19.165 22.335 4.047 24.427 4.047 24.427s-.432-4.378 3.468-4.583l-.015-.33-.028-.007z"/>
        <path fill="#659C35" d="M19.584 38.511l.053-.06.242-.28c4.46-5.206 6.764-9.07 6.581-15.621a3.68 3.68 0 0 0 2.424-3.472 3.697 3.697 0 0 0-1.328-2.847c.422-.74.668-1.596.668-2.512 0-2.704-2.107-4.903-4.746-5.014a4.348 4.348 0 0 0-2.547-5.04c.103-.344.235-.692.408-1.04C22.202.892 23.722-.198 25.11.03c1.142.189 1.942 1.135 2.286 2.407.959-.655 2.022-.91 2.983-.566 2.06.736 2.71 3.74 1.53 6.52l-.012.025c2.233 1.082 2.826 4.298 1.41 7.199a7.77 7.77 0 0 1-.709 1.17c2.466 1.035 3.117 4.175 1.565 6.919a6.892 6.892 0 0 1-1.897 2.144c.35.847.274 1.888-.281 2.849-.745 1.29-2.143 2.056-3.452 2.047-2.3 4.582-5.124 6.36-9.397 8.2L19 39c.21-.135.41-.29.584-.489z"/>
        <path fill="#659C35" d="M16.998 17.538a.724.724 0 0 1-.061-.284 15.762 15.762 0 0 0-1.755-3.305c-3.176-.673-5.572.338-5.625.361a.685.685 0 0 1-.283.06.71.71 0 0 1-.65-.43.728.728 0 0 1 .365-.952c.098-.043 2.052-.893 4.862-.685-1.373-1.458-2.577-2.12-2.757-2.212-1.03-.502-2.533.147-3.027.44a.705.705 0 0 1-.969-.255.729.729 0 0 1 .25-.988c.082-.049 1.674-.986 3.305-.798a4.09 4.09 0 0 0-.607-1.331.73.73 0 0 1 .133-1.01.699.699 0 0 1 .993.134c.044.059.973 1.314.971 2.76 1.03.643 3.693 2.592 5.556 6.508.1.21.198.438.294.665 1.932-1.346 1.614-3.74 1.596-3.856a.72.72 0 0 1 .589-.824.71.71 0 0 1 .81.599c.206 1.31-.088 4.008-2.475 5.458.527 1.578.927 3.463 1.05 5.688a.73.73 0 0 1 .011.207c.074 1.559.003 3.289-.243 5.183a3.585 3.585 0 0 0 1.335-1.29.703.703 0 0 1 .955-.3c.346.186.48.623.297.976-.037.073-.885 1.67-2.845 2.286-.51 2.855-1.42 6.06-2.893 9.657a3.582 3.582 0 0 1-1.375-.375c.002-.006.001-.012.004-.019 1.544-3.744 2.476-7.042 2.972-9.957.003-.017.004-.034.008-.05.368-2.187.488-4.152.419-5.911-.992-1.723-3.907-1.792-3.936-1.793a.716.716 0 0 1-.698-.731.714.714 0 0 1 .708-.712h.008c.115.002 2.135.046 3.737 1.07a18.834 18.834 0 0 0-.924-3.82.694.694 0 0 1-.105-.164z"/>
    </g>
</svg>
