<svg xmlns="http://www.w3.org/2000/svg" width="40" height="40" viewBox="0 0 40 40">
    <g fill="none" fill-rule="nonzero">
        <path fill="#F9EAB0" d="M.1 18.965C.77 10.217 5.493 2.07 12.917.385c6.508-1.478 13.347 1.512 19.103 5.42.09.062.172.117.255.18.062.04.117.082.18.13a39.533 39.533 0 0 1 5.57 4.93 8.68 8.68 0 0 1 1.971 5.055c.11 3.065-1.71 5.8-3.853 7.415-2.144 1.616-4.64 2.39-6.97 3.556a20.075 20.075 0 0 0-6.908 5.573c-1.51 1.947-2.709 4.315-4.55 5.793a7.12 7.12 0 0 1-5.79 1.436 6.678 6.678 0 0 1-3.268-1.699c-1.634-1.477-4.688-4.357-5.618-6-.74-1.08-1.34-2.25-1.786-3.48a23.434 23.434 0 0 1-1.151-9.729z"/>
        <path fill="#E64C3C" d="M3.093 19.422c.627-8.197 5.006-14.82 10.66-16.104A13.252 13.252 0 0 1 16.637 3c4.117 0 8.841 1.795 14.047 5.338.213.138.427.304.661.49l.29.235c.372.345.72.716 1.039 1.112a5.701 5.701 0 0 1 1.322 3.301c.076 2.113-1.336 3.943-2.672 4.951a20.15 20.15 0 0 1-4.042 2.127c-.771.339-1.57.69-2.375 1.091a22.295 22.295 0 0 0-7.706 6.223c-.537.69-1.019 1.401-1.487 2.092a14.583 14.583 0 0 1-2.527 3.121A4.17 4.17 0 0 1 10.55 34a4.88 4.88 0 0 1-2.217-.553 8.066 8.066 0 0 1-2.796-2.61 12.618 12.618 0 0 1-1.46-2.852 20.757 20.757 0 0 1-.984-8.563zm6.273-5.483c.744 2.555 3.966 3.563 7.203 2.244 3.236-1.319 5.26-4.447 4.524-7.002-.737-2.555-3.967-3.564-7.203-2.252-3.236 1.312-5.26 4.455-4.524 7.01z"/>
        <path fill="#F3D55B" d="M2 32.147c.957 1.65 4.096 4.538 5.776 6.021a6.924 6.924 0 0 0 3.36 1.704 7.454 7.454 0 0 0 5.953-1.44c1.892-1.483 3.125-3.86 4.678-5.814a20.553 20.553 0 0 1 7.101-5.59c2.396-1.172 4.954-1.954 7.165-3.569 2.212-1.614 4.075-4.365 3.962-7.44a8.592 8.592 0 0 0-2.027-5.072A40.347 40.347 0 0 0 32.242 6c.148.104.29.215.432.326l.361.29c.514.452.99.944 1.425 1.47a8.361 8.361 0 0 1 1.991 4.96c.107 3.014-1.722 5.695-3.89 7.282-2.17 1.586-4.678 2.341-7.031 3.492a19.981 19.981 0 0 0-6.967 5.473c-1.524 1.905-2.736 4.226-4.593 5.681a7.522 7.522 0 0 1-8.072.665A10.962 10.962 0 0 1 2 32.147z"/>
        <path fill="#E64C3C" d="M11 12.364c.108.42 1.554 1.067 3.406.228 2.004-.91 2.67-2.645 2.587-2.951-.108-.427-1.554-1.074-3.405-.228-.917.392-1.707 1.086-2.265 1.991-.193.275-.306.61-.323.96z"/>
    </g>
</svg>
